<svg xmlns="http://www.w3.org/2000/svg" xmlns:xlink="http://www.w3.org/1999/xlink" preserveAspectRatio="xMidYMid" width="1600" height="329" viewBox="0 0 1600 329">
  <defs>
    <style>

      .cls-2 {
        fill: url(#linear-gradient-1);
      }
    </style>

    <linearGradient id="linear-gradient-1" gradientUnits="userSpaceOnUse" x1="800" y1="329" x2="800" y2="0">
      <stop offset="0" stop-color="#dd43df"/>
      <stop offset="1" stop-color="#c132ea"/>
    </linearGradient>
  </defs>
  <path d="M1065.664,329.000 C1065.664,329.000 1332.832,164.500 1332.832,164.500 C1332.832,164.500 1065.664,0.001 1065.664,0.001 C1065.664,0.001 1600.000,0.001 1600.000,0.001 C1600.000,0.001 1600.000,329.000 1600.000,329.000 C1600.000,329.000 1065.664,329.000 1065.664,329.000 ZM-0.000,0.001 C-0.000,0.001 266.867,329.000 266.867,329.000 C266.867,329.000 -0.000,329.000 -0.000,329.000 C-0.000,329.000 -0.000,0.001 -0.000,0.001 ZM533.734,0.001 C533.734,0.001 533.734,329.000 533.734,329.000 C533.734,329.000 266.867,329.000 266.867,329.000 C266.867,329.000 533.734,0.001 533.734,0.001 ZM799.799,0.001 C799.799,0.001 1065.664,329.000 1065.664,329.000 C1065.664,329.000 533.734,329.000 533.734,329.000 C533.734,329.000 799.799,0.001 799.799,0.001 Z" id="path-1" class="cls-2" fill-rule="evenodd"/>
</svg>
