<?xml version="1.0" encoding="utf-8"?>
<!-- Generator: Adobe Illustrator 18.0.0, SVG Export Plug-In . SVG Version: 6.00 Build 0)  -->
<!DOCTYPE svg PUBLIC "-//W3C//DTD SVG 1.1//EN" "http://www.w3.org/Graphics/SVG/1.1/DTD/svg11.dtd">
<svg version="1.1" id="Layer_1" xmlns="http://www.w3.org/2000/svg" xmlns:xlink="http://www.w3.org/1999/xlink" x="0px" y="0px"
	 viewBox="0 0 495 505" enable-background="new 0 0 495 505" xml:space="preserve">
<g id="Rose">
	<g>
		<g>
			<linearGradient id="SVGID_1_" gradientUnits="userSpaceOnUse" x1="198.9825" y1="189.2532" x2="236.8556" y2="111.1705">
				<stop  offset="5.618000e-03" style="stop-color:#25534D"/>
				<stop  offset="0.4382" style="stop-color:#618E87"/>
				<stop  offset="1" style="stop-color:#B2C3C0"/>
			</linearGradient>
			<path fill="url(#SVGID_1_)" d="M219.3,202.7c0,0-20.4-14.7-25.5-24.4c-5.1-9.6-4-30.6-5.1-36.9c-1.1-6.2-6.8-27.2-10.8-30.6
				c0,0,5.7,5.1,13.6,11.9c7.9,6.8,18.7,0,37.4,12.5c18.7,12.5,28.4,53.3,21.6,69.8C243.6,221.5,228.3,210.1,219.3,202.7z"/>
			<path fill="#25534D" d="M238,198.9c0,0-5-6.7-7.6-10.5c-2.5-3.8-18.4-34.8-24.7-39c0,0,11.3,17.6,13.8,24.3c0,0-18.5-5-23.1-4.2
				c0,0,18.9,3.8,23.5,6.7c0,0,4.2,6.3,5.5,8c1.3,1.7-15.1,1.7-19.7,2.9c0,0,16.8-1.7,18.9-0.4c2.1,1.3,3.8,2.9,5.4,5.4
				c1.7,2.5,5.9,8,5.9,8L238,198.9z"/>
			<path fill="#25534D" d="M239.2,188.4c0,0-3.8-4.6-2.9-8.8c0.8-4.2-4.2-7.1-7.6-12.2c-3.4-5-4.2-10.5-7.5-12.2
				c0,0,8.8,12.2,12.6,15.5c3.8,3.4,4.2-1.7,2.1-8c-2.1-6.3,3.8,4.2,4.2,13.4c0.4,9.2,4.6,5,6.3,0.4c1.7-4.6,2.9,7.5-0.4,14.3
				C242.6,197.6,242.6,191.3,239.2,188.4z"/>
			<linearGradient id="SVGID_2_" gradientUnits="userSpaceOnUse" x1="216.2076" y1="160.5085" x2="179.4634" y2="135.8114">
				<stop  offset="5.618000e-03" style="stop-color:#25534D"/>
				<stop  offset="0.4382" style="stop-color:#618E87"/>
				<stop  offset="1" style="stop-color:#B2C3C0"/>
			</linearGradient>
			<path fill="url(#SVGID_2_)" d="M242.9,194.6c0,0-8.3-5.9-12.2-15.7c-3.9-9.8-17.3-31.1-24-37c-6.7-5.9-21.3-19.7-22.8-22.8
				c0,0,0.4,1.6,3.5,5.9c3.1,4.3,12.2,11.8,15.8,16.9c3.5,5.1,14.2,16.5,16.9,22.4c2.8,5.9,18.5,30.7,20.5,32.3L242.9,194.6z"/>
			<linearGradient id="SVGID_3_" gradientUnits="userSpaceOnUse" x1="146.0052" y1="280.314" x2="73.9384" y2="231.8751">
				<stop  offset="5.618000e-03" style="stop-color:#25534D"/>
				<stop  offset="0.4382" style="stop-color:#618E87"/>
				<stop  offset="1" style="stop-color:#B2C3C0"/>
			</linearGradient>
			<path fill="url(#SVGID_3_)" d="M226.1,303.5c0,0-8.7-12.2-19.7-14.5c-10.9-2.3-14.6-3.6-21.2-0.3c-6.6,3.4-13.1,13.1-17.9,13.1
				c-4.8-0.1-13.9-10.6-21.8-15.1c-7.8-4.5-13.5-9.4-20.9-5.5c-7.4,4-15.6,2.1-19.5,0.1c-3.8-2-4.4,0.1-10.4,1.4
				c-6,1.3-18.8-2.9-25.7-10.3c-6.8-7.4-17.7-14.5-26.6-14.2c0,0,5.6,1.4,18.9-1.9c13.3-3.3,43.1-12.2,54.5-17.4
				c11.4-5.2,23.8-8.5,39.6,2c15.8,10.6,46.1,26.2,49.8,34.9c3.7,8.7,10.1,11.5,14.8,17.3c4.7,5.8,8.7,8.4,8.7,8.4L226.1,303.5z"/>
			<path fill="#25534D" d="M168.8,257.2c0,0-23.5-5.9-31-5.9c-7.6,0-18.9-3.4-18.9-3.4s0.8,0,9.6-0.4c8.8-0.4,8.8-5.5,5-7.1
				c-3.8-1.7-1.3-5.9,9.6,5.9c10.9,11.7,8.4,1.3,8-0.8c-0.4-2.1,2.9,0.4,7.1,5C162.5,255.1,168.8,257.2,168.8,257.2z"/>
			<path fill="#25534D" d="M170,271.4c0,0-14.7-10.1-19.7-10.9c-5-0.8-25.2-4.6-28.9-3.8c-3.8,0.8-15.5,0.8-20.5,2.1
				c0,0,9.6,0.4,13.8,0.4c4.2,0,11.3-2.1,14.3-0.8c2.9,1.3,2.5,2.1-3.8,4.6c-6.3,2.5-18,11.3-18.9,14.7c0,0,6.7-8.8,13.4-10.5
				c6.7-1.7,13.4-5.4,14.7-6.3c0,0,11.3-0.8,15.5,1.3c4.2,2.1-0.4,5.4-6.3,8.4c-5.9,2.9-8.8,5.9-8.8,5.9s1.3-0.8,6.7-2.9
				c5.5-2.1,12.6-7.1,13.8-8c1.3-0.8,12.2,7.1,14.3,12.2L170,271.4z"/>
			<linearGradient id="SVGID_4_" gradientUnits="userSpaceOnUse" x1="123.9011" y1="267.1066" x2="84.8562" y2="240.8631">
				<stop  offset="5.618000e-03" style="stop-color:#25534D"/>
				<stop  offset="0.4382" style="stop-color:#618E87"/>
				<stop  offset="1" style="stop-color:#B2C3C0"/>
			</linearGradient>
			<path fill="url(#SVGID_4_)" d="M64.9,259.6c0,0,3.9,3.2,12.2,2c8.3-1.2,24.8-7.5,34.7-7.5c9.8,0,44.9,3.5,51.2,10.6
				c6.3,7.1,9.5,8.7,9.5,8.7l1.2-2.4c0,0-8.3-7.9-11.8-10.6c-3.5-2.8-43.3-10.2-50.4-9.1C104.3,252.5,75.5,262.4,64.9,259.6z"/>
			<linearGradient id="SVGID_5_" gradientUnits="userSpaceOnUse" x1="319.5452" y1="116.9308" x2="375.9938" y2="116.9308">
				<stop  offset="5.618000e-03" style="stop-color:#F6A18E"/>
				<stop  offset="0.4382" style="stop-color:#FCCFA1"/>
				<stop  offset="1" style="stop-color:#F5E9DF"/>
			</linearGradient>
			<path fill="url(#SVGID_5_)" d="M322.4,123.1c0,0,5.6-10.6,11.1-15.7c5.6-5.1,16.7-8.6,28.3-13.6c11.6-5.1,11.6-6.1,11.6-6.1
				s2.5,1,2,3c-0.5,2,0.5,5.6,0.5,5.6s-4.6,1.5-8.1,7.1c-3.5,5.6-7.1,19.2-13.6,27.8c-6.6,8.6-20.2,17.7-27.3,14.1
				C319.9,141.8,316.9,130.2,322.4,123.1z"/>
			<linearGradient id="SVGID_6_" gradientUnits="userSpaceOnUse" x1="315.3196" y1="173.5821" x2="361.2657" y2="78.855">
				<stop  offset="5.618000e-03" style="stop-color:#25534D"/>
				<stop  offset="0.4382" style="stop-color:#618E87"/>
				<stop  offset="1" style="stop-color:#B2C3C0"/>
			</linearGradient>
			<path fill="url(#SVGID_6_)" d="M310.6,174.5c5.9-15.3,5.8-15.4,6.4-20.1c0.7-5.5-1.3-5.9-2-11.7c-0.7-5.8-1.2-15,2.9-20.8
				c4.1-5.8,10.6-10.2,11.9-15c0,0-2,6.1-3.4,10.9c0,0,11.6-4.4,15.7-4.1c4.1,0.3,7.9-3.1,9.9-6.1c0,0-4.4,4.4-4.1,8.9
				c0.3,4.4-2.2,10.6-9,21.4c0,0-4,4.2-1,2.4c3.1-1.7,10.8-1.4,13.2-6.8c2.4-5.5,8.1-12.2,12.2-12.2c0,0-3.1,4.7-5.9,9.8
				c-2.7,5.1-10.9,24.3-22.5,20.5c0,0-7.2,6.6-10.3,5.9c0,0-6.7,17.2-10.8,23"/>
			<g>
				<linearGradient id="SVGID_7_" gradientUnits="userSpaceOnUse" x1="283.7759" y1="369.2172" x2="306.654" y2="385.4213">
					<stop  offset="5.618000e-03" style="stop-color:#25534D"/>
					<stop  offset="0.4382" style="stop-color:#618E87"/>
					<stop  offset="1" style="stop-color:#B2C3C0"/>
				</linearGradient>
				<path fill="url(#SVGID_7_)" d="M264.8,369c0,0,4.5,19.1,13,20.1c8.5,1,17,0.5,19.6-5.5c2.5-6,4-20.1,4.5-25.6
					C302.4,352.4,262.8,347.9,264.8,369z"/>
				<linearGradient id="SVGID_8_" gradientUnits="userSpaceOnUse" x1="307.4205" y1="362.6582" x2="364.6108" y2="362.6582">
					<stop  offset="5.618000e-03" style="stop-color:#25534D"/>
					<stop  offset="0.4382" style="stop-color:#618E87"/>
					<stop  offset="1" style="stop-color:#B2C3C0"/>
				</linearGradient>
				<path fill="url(#SVGID_8_)" d="M288.4,364c0,0,1,8,11,7c10-1,16.6-9,24.6-5c8,4,39.6,6,46.6,3c0,0-6.5,0.5-13-2.5
					c-6.5-3-14-7.5-19.6-7.5c-5.5,0-14.5-0.5-19.1-3C314.5,353.5,287.4,351.9,288.4,364z"/>
				<linearGradient id="SVGID_9_" gradientUnits="userSpaceOnUse" x1="280.0737" y1="362.0392" x2="229.8375" y2="413.7821">
					<stop  offset="5.618000e-03" style="stop-color:#25534D"/>
					<stop  offset="0.4382" style="stop-color:#618E87"/>
					<stop  offset="1" style="stop-color:#B2C3C0"/>
				</linearGradient>
				<path fill="url(#SVGID_9_)" d="M262.8,361c0,0-10,6-11,11c-1,5-1,17-6.5,21.6c-5.5,4.5-13,19.6-13,19.6s0-1.5,5-5
					c5-3.5,12.5-1,20.1-8c7.5-7,35.1-19.6,29.1-35.1C280.4,349.4,269.3,357.5,262.8,361z"/>
				<path fill="#25534D" d="M275.8,365.8c0,0-5.1,2.8-7.4,5.1c-2.3,2.3-3.3,10.7-6.1,13.5c-2.8,2.8-11.2,10.2-12.6,12.6
					c-1.4,2.3-7.4,4.7-9.3,6.5c-1.9,1.9,0.5-0.9,0.5-0.9s4.2-3.3,5.6-5.6c1.4-2.3,10.7-9.3,13-14c2.3-4.7,7.9-17.2,14-19.1
					C279.5,362.1,277.7,362.1,275.8,365.8z"/>
				<linearGradient id="SVGID_10_" gradientUnits="userSpaceOnUse" x1="247.0533" y1="362.4798" x2="158.7928" y2="372.5665">
					<stop  offset="5.618000e-03" style="stop-color:#25534D"/>
					<stop  offset="0.4382" style="stop-color:#618E87"/>
					<stop  offset="1" style="stop-color:#B2C3C0"/>
				</linearGradient>
				<path fill="url(#SVGID_10_)" d="M252.8,360.5c0,0-17.5-6-22.6-2.5c-5,3.5-39.6,15.5-53.7,12c0,0,21.1,4.5,29.1,2
					c8-2.5,17.6-6.5,25.6-4.5C239.2,369.5,265.3,372.5,252.8,360.5z"/>
				<linearGradient id="SVGID_11_" gradientUnits="userSpaceOnUse" x1="194.6039" y1="249.2826" x2="193.3024" y2="187.2668">
					<stop  offset="5.618000e-03" style="stop-color:#F6A18E"/>
					<stop  offset="0.4382" style="stop-color:#FCCFA1"/>
					<stop  offset="1" style="stop-color:#F5E9DF"/>
				</linearGradient>
				<path fill="url(#SVGID_11_)" d="M166.2,231.8c0,0-4.5-22.1-7.9-27.2c-3.4-5.2,0-13.1,3.8-10.3c3.8,2.8,26.9,7.9,33.1,4.8
					c6.2-3.1,28.6-4.8,33.4-1.4c4.8,3.5-2.4,23.8-2.4,23.8l-35.9,19.7L166.2,231.8z"/>
				<linearGradient id="SVGID_12_" gradientUnits="userSpaceOnUse" x1="313.1945" y1="348.9899" x2="281.3897" y2="200.5755">
					<stop  offset="5.618000e-03" style="stop-color:#E38B79"/>
					<stop  offset="0.4382" style="stop-color:#FCCFA1"/>
					<stop  offset="1" style="stop-color:#F5E9DF"/>
				</linearGradient>
				<path fill="url(#SVGID_12_)" d="M291.1,367.7c0,0-9.6-3.7-26.2-1.7c-16,1.9-43.1-6.9-57.6-24.1
					c-14.5-17.2-39.7-108.5-39.7-108.5L354.9,218c0,0,26.6-8.6,30.4-11.4c3.8-2.8,4.8-2.4,6.2,1.4c1.4,3.8,5.2,0.7,6.2,3.1
					c1,2.4-1.4,12.1,4.5,15.9c5.9,3.8,9.3,3.1,5.2,12.4c-4.1,9.3-5.1,62.1-4.7,69.3c0.3,7.2-8.1,7.1-17.7,10.2
					c-9.7,3.1-23,10.8-25.8,12.9c-2.8,2.1-15.9,5.2-17.9,4.5C339,335.6,331.8,361.8,291.1,367.7z"/>
				<linearGradient id="SVGID_13_" gradientUnits="userSpaceOnUse" x1="329.7852" y1="296.9397" x2="390.537" y2="236.6241">
					<stop  offset="5.618000e-03" style="stop-color:#E38B79"/>
					<stop  offset="0.4382" style="stop-color:#FCCFA1"/>
					<stop  offset="1" style="stop-color:#F5E9DF"/>
				</linearGradient>
				<path fill="url(#SVGID_13_)" d="M390.6,265c0,0-2.8-0.8-4.8-5.2c-2-4.4-1.6-8.8-5.2-10.8c-3.6-2-11.6-7.6-15.6-6.4
					c-4,1.2-13.6,3.2-16,6.8c-2.4,3.6-39.3,50.1-39.3,50.1s-2.4,6.4,5.6,5.2C323.2,303.5,383,276.3,390.6,265z"/>
				<linearGradient id="SVGID_14_" gradientUnits="userSpaceOnUse" x1="232.1681" y1="268.9662" x2="174.0332" y2="207.3348">
					<stop  offset="5.618000e-03" style="stop-color:#E38B79"/>
					<stop  offset="0.4382" style="stop-color:#FCCFA1"/>
					<stop  offset="1" style="stop-color:#F5E9DF"/>
				</linearGradient>
				<path fill="url(#SVGID_14_)" d="M210.5,223.3c0,0-17.2,4.8-21.3,5.6c-4,0.8-25.3,2-24.9,4c0.4,2,4.4,13.2,4.4,13.2
					s26.1,30.5,30.5,32.9c4.4,2.4,40.9,24.9,40.9,24.9l23.3-30.5C263.5,273.4,253,220.1,210.5,223.3z"/>
				<linearGradient id="SVGID_15_" gradientUnits="userSpaceOnUse" x1="281.8397" y1="223.688" x2="280.531" y2="161.333">
					<stop  offset="5.618000e-03" style="stop-color:#F6A18E"/>
					<stop  offset="0.4382" style="stop-color:#FCCFA1"/>
					<stop  offset="1" style="stop-color:#F5E9DF"/>
				</linearGradient>
				<path fill="url(#SVGID_15_)" d="M226.9,207.3c0,0,16.9-15.5,20.3-20.7c3.4-5.2,19-22.1,23.5-19c4.5,3.1,12.8,4.8,14.5,3.8
					c1.7-1,3.8-3.1,4.8-2.4c1,0.7,5.2,3.1,6.9,1c1.7-2.1,37.2,10.7,39,30c1.7,19.3-41.7,14.1-41.7,14.1L226.9,207.3z"/>
				<linearGradient id="SVGID_16_" gradientUnits="userSpaceOnUse" x1="274.101" y1="308.8472" x2="287.6989" y2="250.5219">
					<stop  offset="5.618000e-03" style="stop-color:#E38B79"/>
					<stop  offset="0.4382" style="stop-color:#FCCFA1"/>
					<stop  offset="1" style="stop-color:#F5E9DF"/>
				</linearGradient>
				<path fill="url(#SVGID_16_)" d="M315.5,301.8c0,0,0.2-0.2,0.5-0.5c2.6-2.7,14.7-15,17.8-17.8c3.5-3.1,8.3-9.3,6.2-8.3
					c-2.1,1-19,4.8-23.1,5.5c-4.1,0.7-78.3,5.2-78.3,5.2s-17.9-2.8-18.3,2.1c-0.3,4.8,51.4,26.5,51.4,26.5l24.5-3.1"/>
				<linearGradient id="SVGID_17_" gradientUnits="userSpaceOnUse" x1="342.8159" y1="310.6582" x2="334.6758" y2="272.6729">
					<stop  offset="5.618000e-03" style="stop-color:#F6A18E"/>
					<stop  offset="0.4382" style="stop-color:#FCCFA1"/>
					<stop  offset="1" style="stop-color:#F5E9DF"/>
				</linearGradient>
				<path fill="url(#SVGID_17_)" d="M273.1,323.5c0,0-1.7-1.7,4.5-7.2c6.2-5.5,15.2-12.8,22.1-13.1c6.9-0.3,13.8-3.8,21.7-7.9
					c7.9-4.1,54.1-28.3,60.4-30.3c6.2-2.1,9.3-1,14.8,3.4c5.5,4.5,17.2,11.4,12.1,13.1c-5.2,1.7-29,11.4-36.9,13.5
					c-7.9,2.1-17.6,5.2-27.2,9c-9.7,3.8-31.7,15.5-38.3,17.2c-6.6,1.7-32.8,10.7-34.1,3.5"/>
				<linearGradient id="SVGID_18_" gradientUnits="userSpaceOnUse" x1="204.0444" y1="297.9549" x2="154.8085" y2="280.3709">
					<stop  offset="5.618000e-03" style="stop-color:#F6A18E"/>
					<stop  offset="0.4382" style="stop-color:#FCCFA1"/>
					<stop  offset="1" style="stop-color:#F5E9DF"/>
				</linearGradient>
				<path fill="url(#SVGID_18_)" d="M222.2,327.2l-34.9,0.5c0,0-1.7-2.4-3.8-4.1c-2.1-1.7-10-6.4-11.7-8.1c-1.7-1.7,0-3.4-3.4-3.4
					c-3.4,0-10.6,0.3-10.2-3.9c0.8-9.1,9.9-14.4,9.9-24.2c0-12.8-2.1-35.2-0.1-34.5c2.1,0.7,43.5,46.2,43.5,46.2
					S227.3,321,222.2,327.2z"/>
				<linearGradient id="SVGID_19_" gradientUnits="userSpaceOnUse" x1="213.037" y1="329.3692" x2="223.5155" y2="265.6229">
					<stop  offset="5.618000e-03" style="stop-color:#F6A18E"/>
					<stop  offset="0.4382" style="stop-color:#FCCFA1"/>
					<stop  offset="1" style="stop-color:#F5E9DF"/>
				</linearGradient>
				<path fill="url(#SVGID_19_)" d="M217.6,329c0,0-10.7-13.4-13.1-20.3c-2.4-6.9-6.6-18.6-10.7-22.4c-4.1-3.8-21-25.2-23.8-29.3
					c-2.8-4.1-6.6-7.2-10-8.3c-3.4-1-4.5-14.5-1.4-16.2c3.1-1.7,9-1.4,12.1,1.4c3.1,2.8-0.7,0.7,1.7,9c2.4,8.3,4.8,13.5,15.5,20.3
					c10.7,6.9,25.9,14.8,29.7,17.9c3.8,3.1,12.4,8.3,21,10.7c8.6,2.4,41.4,18.3,45.9,21.7c4.5,3.4-1.7,16.2-1.7,16.2L217.6,329z"/>
				<linearGradient id="SVGID_20_" gradientUnits="userSpaceOnUse" x1="306.0758" y1="245.0179" x2="359.3971" y2="192.0794">
					<stop  offset="5.618000e-03" style="stop-color:#F6A18E"/>
					<stop  offset="0.4382" style="stop-color:#FCCFA1"/>
					<stop  offset="1" style="stop-color:#F5E9DF"/>
				</linearGradient>
				<path fill="url(#SVGID_20_)" d="M312.4,274.9l17.2,5.2c0,0,12.4-9.7,16.9-18.3c4.5-8.6,8.6-23.5,9-34.1
					c0.4-10.7-0.3-15.9-3.4-19.7c-3.1-3.8-6.2-8.3-6.5-10.4c-0.3-2.1-16.6-3.1-25.9-1.7c-9.3,1.4-27.9,10.7-34.1,11.4
					c-6.2,0.7-3.1,12.1-3.1,12.1L312.4,274.9z"/>
				<linearGradient id="SVGID_21_" gradientUnits="userSpaceOnUse" x1="294.4946" y1="257.8554" x2="337.6902" y2="213.946">
					<stop  offset="5.618000e-03" style="stop-color:#E38B79"/>
					<stop  offset="0.4382" style="stop-color:#FCCFA1"/>
					<stop  offset="1" style="stop-color:#F5E9DF"/>
				</linearGradient>
				<path fill="url(#SVGID_21_)" d="M319.3,273.9c0,0,2.4-1,4.1-12.1c1.7-11,4.8-25.2,6.6-29c1.7-3.8-9.7-12.8-25.2-10.3
					c-15.5,2.4-16.9,0.7-16.9,0.7v42.8C288,265.9,305.9,274.9,319.3,273.9z"/>
				<linearGradient id="SVGID_22_" gradientUnits="userSpaceOnUse" x1="251.0303" y1="253.4838" x2="203.8357" y2="206.29">
					<stop  offset="5.618000e-03" style="stop-color:#F6A18E"/>
					<stop  offset="0.4382" style="stop-color:#FCCFA1"/>
					<stop  offset="1" style="stop-color:#F5E9DF"/>
				</linearGradient>
				<path fill="url(#SVGID_22_)" d="M227.6,282.1c0,0-1.7-3.8-5.9-7.9c-4.1-4.1-11-6.9-11.4-12.1c-0.3-5.2-0.3-10-2.4-13.8
					c-2.1-3.8-3.4-15.2-3.1-22.1c0.3-6.9,1.7-9,1.7-13.1c0-4.1-1.7-7.9,3.8-9c5.5-1,16.6-2.4,25.2-2.8c8.6-0.3,17.6,2.1,20.3,4.8
					c2.8,2.8,6.5,50.3,6.5,50.3L227.6,282.1z"/>
				<linearGradient id="SVGID_23_" gradientUnits="userSpaceOnUse" x1="273.6389" y1="228.4039" x2="270.6401" y2="199.7488">
					<stop  offset="5.618000e-03" style="stop-color:#F6A18E"/>
					<stop  offset="0.4382" style="stop-color:#FCCFA1"/>
					<stop  offset="1" style="stop-color:#F5E9DF"/>
				</linearGradient>
				<path fill="url(#SVGID_23_)" d="M250.7,258.7c0,0,2.1-10.7,1.7-17.6c-0.3-6.9-3.1-12.4-3.8-17.9c-0.7-5.5-5.2-17.6,3.5-21.4
					c8.6-3.8,16.9-6.6,27.9,0.3c11,6.9,19,16.2,19,19.3c0,3.1-2.8,43.5-1.7,47.2C297.3,268.7,263.5,275.6,250.7,258.7z"/>
				<linearGradient id="SVGID_24_" gradientUnits="userSpaceOnUse" x1="278.5137" y1="242.7129" x2="298.4397" y2="221.7905">
					<stop  offset="5.618000e-03" style="stop-color:#B27B76"/>
					<stop  offset="0.4382" style="stop-color:#FBC591"/>
					<stop  offset="1" style="stop-color:#EDD5C3"/>
				</linearGradient>
				<path fill="url(#SVGID_24_)" d="M299,221.4c0,0-3.5-3.6-10.1-0.1c-6.6,3.5-22.6,10.8-20.9,24.4c1.7,13.6,27.9-4.5,27.9-4.5
					l3.8-14.6C299.7,226.5,299.4,223.7,299,221.4z"/>
				<linearGradient id="SVGID_25_" gradientUnits="userSpaceOnUse" x1="271.6096" y1="246.0658" x2="265.6293" y2="218.159">
					<stop  offset="5.618000e-03" style="stop-color:#F6A18E"/>
					<stop  offset="0.4382" style="stop-color:#FCCFA1"/>
					<stop  offset="1" style="stop-color:#F5E9DF"/>
				</linearGradient>
				<path fill="url(#SVGID_25_)" d="M258.9,246.7c0,0-1.7-16.7-1.4-21.6c0.3-4.9,0-4.5,2.8-1.7c2.8,2.8,7.7,2.8,10.1,1.4
					c2.4-1.4,9.4-0.4,10.1,3.1c0.7,3.5-1.7,18.5-1.7,18.5S265.9,252.6,258.9,246.7z"/>
				<linearGradient id="SVGID_26_" gradientUnits="userSpaceOnUse" x1="244.5328" y1="231.8413" x2="272.1721" y2="231.8413">
					<stop  offset="5.618000e-03" style="stop-color:#F6A18E"/>
					<stop  offset="0.4382" style="stop-color:#FCCFA1"/>
					<stop  offset="1" style="stop-color:#F5E9DF"/>
				</linearGradient>
				<path fill="url(#SVGID_26_)" d="M272.2,243.9c0,0-1.4-2.8-4.9-5.2c-3.5-2.4-14.6-9.4-20.2-24.7c-5.6-15.3-0.3-0.7-0.3-0.7
					s-0.7,4.9,0.7,7.3c1.4,2.4,3.5,11.8,3.1,18.5c-0.4,6.6-3.1,10.1-1,15.7C251.6,260.3,268.3,253.3,272.2,243.9z"/>
				<linearGradient id="SVGID_27_" gradientUnits="userSpaceOnUse" x1="280.7269" y1="264.459" x2="272.2577" y2="224.9383">
					<stop  offset="5.618000e-03" style="stop-color:#F6A18E"/>
					<stop  offset="0.4382" style="stop-color:#FCCFA1"/>
					<stop  offset="1" style="stop-color:#F5E9DF"/>
				</linearGradient>
				<path fill="url(#SVGID_27_)" d="M251.3,252.6c0,0,2.4-5.6,9.1-8c6.6-2.4,19.8-3.1,25.1-8.4c5.2-5.2,13.2-7.3,13.6-14.8
					c0,0,3.5,6.1,1.4,13.8c-2.1,7.7-3.5,23-2.1,29.2C298.3,264.5,245,269.3,251.3,252.6z"/>
				<linearGradient id="SVGID_28_" gradientUnits="userSpaceOnUse" x1="270.9267" y1="289.8163" x2="269.7721" y2="234.8036">
					<stop  offset="5.618000e-03" style="stop-color:#F6A18E"/>
					<stop  offset="0.4382" style="stop-color:#FCCFA1"/>
					<stop  offset="1" style="stop-color:#F5E9DF"/>
				</linearGradient>
				<path fill="url(#SVGID_28_)" d="M239,282.1c-2-0.2-12.1-18.3-15.9-25.5c-3.8-7.2-2.8-8.6-4.1-13.5c-1.4-4.8,2.4-0.3,7.6-1
					c5.2-0.7,11.4,4.5,14.8,6.2c3.5,1.7,9,4.1,14.8,5.5c5.9,1.4,12.8,2.4,19.3,3.1c6.6,0.7,31,8.3,37.2,10c6.2,1.7,9.3,3.1,9,6.2
					c-0.3,3.1,0,4.8,0,4.8S262.8,284.9,239,282.1z"/>
				<linearGradient id="SVGID_29_" gradientUnits="userSpaceOnUse" x1="288.2652" y1="314.3879" x2="294.799" y2="269.7444">
					<stop  offset="5.618000e-03" style="stop-color:#F6A18E"/>
					<stop  offset="0.4382" style="stop-color:#FCCFA1"/>
					<stop  offset="1" style="stop-color:#F5E9DF"/>
				</linearGradient>
				<path fill="url(#SVGID_29_)" d="M239.7,288.7c0,0,2.8,0.7,13.1,1.4c10.3,0.7,14.1-1,24.8-1.7s29.3-4.1,32.8-2.8
					c3.4,1.4,5.5,0,9.3-1.7c3.8-1.7,13.4-1,20.4-2.4c6.9-1.4,24.5-6.9,26.2-11.7c1.7-4.8-5.2-6.6-7.6-5.2
					c-2.4,1.4-20.7,6.2-26.2,8.6c-5.5,2.4-13.8,5.5-22.8,5.2c-9-0.3-50.3,1.7-60.3,1.7c-10,0-29.3-3.1-27.6,1.4
					C223.5,285.9,230.7,288.7,239.7,288.7z"/>
				<linearGradient id="SVGID_30_" gradientUnits="userSpaceOnUse" x1="278.8407" y1="348.5306" x2="269.2838" y2="303.9337">
					<stop  offset="5.618000e-03" style="stop-color:#F6A18E"/>
					<stop  offset="0.4382" style="stop-color:#FCCFA1"/>
					<stop  offset="1" style="stop-color:#F5E9DF"/>
				</linearGradient>
				<path fill="url(#SVGID_30_)" d="M346.2,338.3c9-2.8,15.2-11.7,16.9-15.9c1.7-4.1,6.5-9.7,6.9-13.8c0.3-4.1-19-0.3-27.6,0.3
					c-8.6,0.7-22.4,6.9-27.2,8.6c-4.8,1.7-24.8,3.1-24.8,3.1s-83.8,4.8-93.5,5.5c-9.7,0.7-16.9-1.7-19,0c-2.1,1.7-3.3,12.1,0.9,12.4
					c4.1,0.4,32.6,3.4,44.3,4.5c11.7,1,29.7,0.3,31.7-1c2.1-1.4,11-5.9,22.1-5.2c11,0.7,25.2,1,29.3,3.4c4.1,2.4,24.8-5.5,35.5-2.4"
					/>
			</g>
			<path fill="#25534D" d="M324.8,119.6c0,0-12.6,13.8-5.9,29.8c0,0,1.3,0.4,0.8-2.9C319.3,143.1,318.1,134.3,324.8,119.6z"/>
			<path fill="#25534D" d="M322.3,149.8c0,0,9.6,0,11.7-3.8c0,0,8.8,2.5,12.2-2.9c0,0-5.9,5.9-10.5,5.4
				C335.7,148.5,324.4,156.1,322.3,149.8z"/>
			<path fill="#25534D" d="M344.1,116.7c0,0-19.7,11.3-22.6,29.8C321.4,146.5,333.6,124.6,344.1,116.7z"/>
		</g>
	</g>
</g>
<g>
</g>
<g>
</g>
<g>
</g>
<g>
</g>
<g>
</g>
<g>
</g>
<g>
</g>
<g>
</g>
<g>
</g>
<g>
</g>
<g>
</g>
<g>
</g>
<g>
</g>
<g>
</g>
<g>
</g>
<g>
</g>
</svg>
