<svg xmlns="http://www.w3.org/2000/svg" viewBox="0 0 495 505" enable-background="new 0 0 495 505"><g><linearGradient id="a" gradientUnits="userSpaceOnUse" x1="198.316" y1="188.429" x2="235.376" y2="112.023"><stop offset=".006" stop-color="#25534D"/><stop offset=".438" stop-color="#618E87"/><stop offset="1" stop-color="#B2C3C0"/></linearGradient><path fill="url(#a)" d="M219.3 202.7c-15.1-11.1-27.6-21.5-29.3-41-1.3-14-.2-40.7-12.1-50.9 23.1 20.6 55.1 15.8 68.2 48.4 10 25 9 72.7-26.8 43.5z"/><path fill="#25534D" d="M238 198.9c-10.6-14.1-17.7-39.8-32.3-49.5 4.9 7.7 10.6 15.7 13.8 24.3-6.8-1.8-16-5.5-23.1-4.2 13.1 2.6 21 4.1 28.9 14.7 0 0-17.9 2.5-19.7 2.9 4.7-.5 14.7-3 18.9-.4 6.4 3.8 8.3 10.8 13.5 12.2zM239.2 188.4c-4.9-8.7-7.8-28-18-33.1 1.4 2 12.7 18.6 15.3 16.3 1.8-1.6.4-9.5-.9-10.6 5.1 4.7 1.2 16.9 5.9 20.5 2.3 1.8 5.6-6.2 6-5.5 1.3 2.7.5 18.2-4 17.9-1.6-1.7-3-3.6-4.3-5.5z"/><linearGradient id="b" gradientUnits="userSpaceOnUse" x1="216.651" y1="159.849" x2="179.907" y2="135.152"><stop offset=".006" stop-color="#25534D"/><stop offset=".438" stop-color="#618E87"/><stop offset="1" stop-color="#B2C3C0"/></linearGradient><path fill="url(#b)" d="M242.9 194.6c-12.7-9.7-17.8-28.1-26.7-41.1-8.7-12.6-25.6-21.1-32.3-34.6 8.8 17 28 27.6 36.2 45.3 3.8 8.3 15.4 32.2 22.8 30.4z"/><linearGradient id="c" gradientUnits="userSpaceOnUse" x1="146.249" y1="279.952" x2="74.182" y2="231.513"><stop offset=".006" stop-color="#25534D"/><stop offset=".438" stop-color="#618E87"/><stop offset="1" stop-color="#B2C3C0"/></linearGradient><path fill="url(#c)" d="M226.1 303.5c-7.7-10.5-22.7-19.4-36.3-16.5-7.9 1.7-12.3 8.9-18.5 13.2-8.1 5.6-19.4-9.9-25.7-13.6-13.6-7.8-35.6-7.2-50.8-3.9-21.4 4.6-31.6-25.2-52.2-24.5 33.8 3.1 73.9-34.9 105.4-21.4 17.5 7.5 38 20.7 52.4 33.1 10.6 9.2 17.4 22.4 28.6 31.7-1 .7-2 1.3-2.9 1.9z"/><path fill="#25534D" d="M168.8 257.2c-16.5-4.1-33.7-4.6-49.9-9.2 4.3.2 12.1.6 15.7-2.1 4.1-3.1-3.3-7.1-2.4-7.5 6.3-2.9 12.8 15.8 18.7 13.3 1.9-.8.6-4.9.3-6.2.4 2.2 14.1 10.2 17.6 11.7zM170 271.4c-19.8-13.5-45.6-18.5-69.2-12.6 3 .1 30 1 29.7 1.4-5.3 6.9-21.6 7.1-24.2 17.5 5.6-7.7 20.5-16.5 29.9-16.9 23.8-1 9.7 7.1-1.4 15.6 12.7-5.4 26.5-18.7 34.8 1.3.2-2.1.3-4.2.4-6.3z"/><linearGradient id="d" gradientUnits="userSpaceOnUse" x1="124.056" y1="266.877" x2="85.011" y2="240.633"><stop offset=".006" stop-color="#25534D"/><stop offset=".438" stop-color="#618E87"/><stop offset="1" stop-color="#B2C3C0"/></linearGradient><path fill="url(#d)" d="M64.9 259.6c16.5 7.9 40.7-6.6 59.4-4.7 21.5 2.1 31.2 7 48.1 18.5 2.5-14.5-30.8-18.4-40.1-20-22.9-3.8-46.3 11.7-67.4 6.2z"/><linearGradient id="e" gradientUnits="userSpaceOnUse" x1="319.69" y1="117.878" x2="376.135" y2="117.878"><stop offset=".006" stop-color="#F6A18E"/><stop offset=".438" stop-color="#FCCFA1"/><stop offset="1" stop-color="#F5E9DF"/></linearGradient><path fill="url(#e)" d="M322.4 123.1c5.6-10.4 56.7-48.8 53.6-26.8-.2 1.4-8.9 8.3-10.2 11.3-3.5 8-6.1 16.6-11.5 23.6-5.1 6.7-13.7 13.9-22.4 14.9-11.5 1.2-15.4-15.5-9.5-23z"/><linearGradient id="f" gradientUnits="userSpaceOnUse" x1="315.404" y1="173.623" x2="361.35" y2="78.896"><stop offset=".006" stop-color="#25534D"/><stop offset=".438" stop-color="#618E87"/><stop offset="1" stop-color="#B2C3C0"/></linearGradient><path fill="url(#f)" d="M310.6 174.5c2.8-7.1 8.5-17.6 5.9-25.8-2-6.4-2.7-13.5-1.3-20.1 2-9.5 12.2-12.9 14.7-21.7-1.2 3.6-2.3 7.3-3.4 10.9 8.1-3.4 20.4-2.3 25.6-10.3-5.3 6-12.2 25.2-15.2 32.8.1-.3 10.3-3 10.5-3.1 6.4-3.3 7.3-16.1 16-16.1-5.6 8.4-14.2 34.9-28.4 30.3-13.5 6.9-12.5 16.8-21 28.9"/><linearGradient id="g" gradientUnits="userSpaceOnUse" x1="283.163" y1="369.347" x2="305.023" y2="384.83"><stop offset=".006" stop-color="#25534D"/><stop offset=".438" stop-color="#618E87"/><stop offset="1" stop-color="#B2C3C0"/></linearGradient><path fill="url(#g)" d="M264.8 369c1.5 6.3 5.1 19.1 13 20.1 20.3 2.4 21.8-10.3 23.6-26.9 1.7-15.1-38.3-11.7-36.6 6.8z"/><linearGradient id="h" gradientUnits="userSpaceOnUse" x1="307.411" y1="362.925" x2="364.61" y2="362.925"><stop offset=".006" stop-color="#25534D"/><stop offset=".438" stop-color="#618E87"/><stop offset="1" stop-color="#B2C3C0"/></linearGradient><path fill="url(#h)" d="M288.4 364c5 17.3 25.4-3.1 35.6 2 10.8 5.4 35.4 7.8 46.6 3-6.5.2-84.3-29.6-82.2-5z"/><linearGradient id="i" gradientUnits="userSpaceOnUse" x1="279.18" y1="363.017" x2="229.894" y2="413.781"><stop offset=".006" stop-color="#25534D"/><stop offset=".438" stop-color="#618E87"/><stop offset="1" stop-color="#B2C3C0"/></linearGradient><path fill="url(#i)" d="M262.8 361c-10.1 5.3-10.6 11.9-12.6 22-2.2 11.1-12.9 20-18 30.2 5.7-9.2 17.6-6 25.1-13 6.7-6.2 15.2-10.1 21.9-16.4 16.7-15.7 2.9-33.2-16.4-22.8z"/><path fill="#25534D" d="M275.8 365.8c-10.3 4-9.2 14.7-16.4 21.4-5.2 4.9-15.4 11.2-19.4 16.5 4.7-6.2 11.5-11.1 16.7-16.9 7.4-8.1 8.2-21 20.5-24.1.6 1.2.1 2.2-1.4 3.1z"/><linearGradient id="j" gradientUnits="userSpaceOnUse" x1="246.891" y1="363.16" x2="158.928" y2="373.213"><stop offset=".006" stop-color="#25534D"/><stop offset=".438" stop-color="#618E87"/><stop offset="1" stop-color="#B2C3C0"/></linearGradient><path fill="url(#j)" d="M252.8 360.5c-27-9.2-49 16.3-76.2 9.5 18 3.7 28.7-.4 46.2-2.8 4.1-.5 44.2 6.9 30-6.7z"/><linearGradient id="k" gradientUnits="userSpaceOnUse" x1="195.311" y1="246.166" x2="194.139" y2="190.319"><stop offset=".006" stop-color="#F6A18E"/><stop offset=".438" stop-color="#FCCFA1"/><stop offset="1" stop-color="#F5E9DF"/></linearGradient><path fill="url(#k)" d="M166.2 231.8c-2.8-13.6-18.7-40.8 3-34.9 9.4 2.6 58.8-5.4 60.8 3.1 4.8 20.5-12 25.9-26.2 33.7-16.2 8.9-19.9 4.9-37.6-1.9z"/><linearGradient id="l" gradientUnits="userSpaceOnUse" x1="313.124" y1="348.995" x2="281.321" y2="200.591"><stop offset=".006" stop-color="#E38B79"/><stop offset=".438" stop-color="#FCCFA1"/><stop offset="1" stop-color="#F5E9DF"/></linearGradient><path fill="url(#l)" d="M291.1 367.7c-18.4-5.6-37 .6-55.6-6.6-20-7.8-31.1-20.8-39.1-39.9-11.8-28.4-20.6-58.2-28.8-87.8 35.6-2.9 71.2-5.8 106.8-8.8 33.2-2.7 68-1.6 99.5-13.2 3.6-1.3 8.1-2.5 11.3-4.8 6.1-4.4 4.9 3.2 10.6 3.4 3.3.2 2.1 6.8 2.2 8.4.7 8.3 6.5 7.2 10.4 12.6 2.2 3-4 24.5-4.3 28.8-1.1 14.5-1.6 29.1-1.7 43.7 0 14.7-12.4 12.8-23.8 17.7-11.8 5-21.4 13-34.3 14.9-6.2.9-6.9 5.5-11 10.3-10.6 12.6-26.3 19-42.2 21.3z"/><linearGradient id="m" gradientUnits="userSpaceOnUse" x1="330.315" y1="297" x2="389.267" y2="238.47"><stop offset=".006" stop-color="#E38B79"/><stop offset=".438" stop-color="#FCCFA1"/><stop offset="1" stop-color="#F5E9DF"/></linearGradient><path fill="url(#m)" d="M390.6 265c-9.6-6.3-7.7-16.9-20.6-21.8-7.9-3-18.5 2.9-23.2 9-11.2 14.6-22.7 29-34.1 43.4-12.2 15.3 16.9 3.9 22.4 1.5 16.2-7.2 44.9-16.5 55.5-32.1z"/><linearGradient id="n" gradientUnits="userSpaceOnUse" x1="232.473" y1="269.018" x2="176.487" y2="209.665"><stop offset=".006" stop-color="#E38B79"/><stop offset=".438" stop-color="#FCCFA1"/><stop offset="1" stop-color="#F5E9DF"/></linearGradient><path fill="url(#n)" d="M210.5 223.3c-13 3.6-58.8 3-41.2 23.5 17.2 20 32 33.3 54.3 47 9.1 5.6 13.9 13.7 20.8 4.6 3-3.9 19.9-20.8 18.9-25.3-5.4-25.5-23.8-52-52.8-49.8z"/><linearGradient id="o" gradientUnits="userSpaceOnUse" x1="281.821" y1="222.87" x2="280.601" y2="164.776"><stop offset=".006" stop-color="#F6A18E"/><stop offset=".438" stop-color="#FCCFA1"/><stop offset="1" stop-color="#F5E9DF"/></linearGradient><path fill="url(#o)" d="M226.9 207.3c8.1-7.4 15.6-15 22.5-23.5 12.6-15.4 15.3-14.4 32.3-12.2 7.3 1 13.5-3.2 21.8-.4 12.5 4.2 31.1 14 32.4 28.9 2.4 27.1-96.9 8.4-109 7.2z"/><linearGradient id="p" gradientUnits="userSpaceOnUse" x1="275.18" y1="307.368" x2="288.243" y2="251.337"><stop offset=".006" stop-color="#E38B79"/><stop offset=".438" stop-color="#FCCFA1"/><stop offset="1" stop-color="#F5E9DF"/></linearGradient><path fill="url(#p)" d="M315.5 301.8c6.2-6.4 17.4-23 24.5-26.6-14.4 7.2-34.7 6.5-50.3 7.5-16.6 1.1-35.8 5.1-52.4 3-35.1-4.5 2.1 14.4 13.4 19.6 18.6 8.5 25 8.7 45.5 6.1"/><linearGradient id="q" gradientUnits="userSpaceOnUse" x1="342.102" y1="311.528" x2="334.117" y2="274.269"><stop offset=".006" stop-color="#F6A18E"/><stop offset=".438" stop-color="#FCCFA1"/><stop offset="1" stop-color="#F5E9DF"/></linearGradient><path fill="url(#q)" d="M273.1 323.5c5.6-20.1 44.3-26.2 61.3-35.1 21.3-11 45.2-32.3 67.1-16.4 14.7 10.7 1.3 11.6-10.3 16-16.8 6.4-34.5 10.3-50.9 17.6-5.6 2.5-65.7 32.5-68.3 18.9"/><linearGradient id="r" gradientUnits="userSpaceOnUse" x1="204.603" y1="297.072" x2="155.454" y2="279.519"><stop offset=".006" stop-color="#F6A18E"/><stop offset=".438" stop-color="#FCCFA1"/><stop offset="1" stop-color="#F5E9DF"/></linearGradient><path fill="url(#r)" d="M222.2 327.2c-20.9.3-34.9 3.7-50.4-11.8-4.2-4.2-6.6-1.7-11.9-4.5-6.3-3.2 5.3-17.1 6.7-20.4 1.4-3.4 2.1-40.9 1.4-41.1 10 3.4 66.2 63.3 54.2 77.8z"/><linearGradient id="s" gradientUnits="userSpaceOnUse" x1="213.688" y1="329.479" x2="224.193" y2="265.572"><stop offset=".006" stop-color="#F6A18E"/><stop offset=".438" stop-color="#FCCFA1"/><stop offset="1" stop-color="#F5E9DF"/></linearGradient><path fill="url(#s)" d="M217.6 329c-19.3-24.2-27.3-56.7-52.3-77.4-6.1-5.1-10-6.5-8.2-16.1 1.3-7.1 15.1-4.9 14.5 1.8-2.1 24.1 31.8 32 46 43.7 7.9 6.5 87.6 30.2 65.2 48.6-4 3.3-25-.3-30-.3-11.7 0-23.5-.1-35.2-.3z"/><linearGradient id="t" gradientUnits="userSpaceOnUse" x1="307.096" y1="246.697" x2="358.937" y2="195.229"><stop offset=".006" stop-color="#F6A18E"/><stop offset=".438" stop-color="#FCCFA1"/><stop offset="1" stop-color="#F5E9DF"/></linearGradient><path fill="url(#t)" d="M312.4 274.9c4.3 1.3 12.9 5.9 17.2 5.2 10.4-1.8 19.3-22.6 21.9-30.9 8.9-29.1 3.6-58.5-31.9-53.2-19 2.8-44.9 9.2-33.5 30.5 8.9 16.1 17.6 32.2 26.3 48.4z"/><linearGradient id="u" gradientUnits="userSpaceOnUse" x1="295.582" y1="256.711" x2="337.679" y2="213.918"><stop offset=".006" stop-color="#E38B79"/><stop offset=".438" stop-color="#FCCFA1"/><stop offset="1" stop-color="#F5E9DF"/></linearGradient><path fill="url(#u)" d="M319.3 273.9c4-5.5 13.4-37.1 10.5-43.3-6.9-14.6-30.4-5.5-41.9-7.4v33.1c.1 15.5 16.2 18.7 31.4 17.6z"/><linearGradient id="v" gradientUnits="userSpaceOnUse" x1="251.614" y1="254.26" x2="204.949" y2="207.596"><stop offset=".006" stop-color="#F6A18E"/><stop offset=".438" stop-color="#FCCFA1"/><stop offset="1" stop-color="#F5E9DF"/></linearGradient><path fill="url(#v)" d="M227.6 282.1c-6.3-12.1-15.9-12.9-17.8-27.4-1.7-12.8-6.7-22.5-4-36 2.7-13.2.4-14.3 15.9-16.1 9-1 32.6-5.1 35.3 7.4 2.2 10.1 9.6 37.2 5.3 46.7-3.9 9-26.4 19.4-34.7 25.4z"/><linearGradient id="w" gradientUnits="userSpaceOnUse" x1="273.443" y1="229.172" x2="270.331" y2="199.44"><stop offset=".006" stop-color="#F6A18E"/><stop offset=".438" stop-color="#FCCFA1"/><stop offset="1" stop-color="#F5E9DF"/></linearGradient><path fill="url(#w)" d="M250.7 258.7c3-14.9-9.9-41.7-2.4-53.7 10.8-17.3 51.4.2 50.6 18-.6 13.7-5.3 32.4-1.7 45.7-7.8 9.6-40.9-2.6-46.5-10z"/><linearGradient id="x" gradientUnits="userSpaceOnUse" x1="278.786" y1="242.159" x2="298.314" y2="221.655"><stop offset=".006" stop-color="#B27B76"/><stop offset=".438" stop-color="#FBC591"/><stop offset="1" stop-color="#EDD5C3"/></linearGradient><path fill="url(#x)" d="M299 221.4c-19.5-9.8-40.3 31.9-23 29.1 15.8-2.5 25.5-13 23-29.1z"/><linearGradient id="y" gradientUnits="userSpaceOnUse" x1="271.7" y1="247.314" x2="265.447" y2="218.135"><stop offset=".006" stop-color="#F6A18E"/><stop offset=".438" stop-color="#FCCFA1"/><stop offset="1" stop-color="#F5E9DF"/></linearGradient><path fill="url(#y)" d="M258.9 246.7c-.4-3.4-4.1-23.5-.9-25.3-2.4 1.4 15.1 2.8 15.9 2.8 7.6.4 6.9 6 6.2 11.7-1 10-9.4 20.8-21.2 10.8z"/><linearGradient id="z" gradientUnits="userSpaceOnUse" x1="244.573" y1="231.961" x2="272.172" y2="231.961"><stop offset=".006" stop-color="#F6A18E"/><stop offset=".438" stop-color="#FCCFA1"/><stop offset="1" stop-color="#F5E9DF"/></linearGradient><path fill="url(#z)" d="M272.2 243.9c-10.5-13.2-21.7-19.2-27.6-36.8 3.2 9.6 6.5 21.8 6 31.9-.2 3.6-5 15.8 1.1 17.5 7.4 2 17.9-6.2 20.5-12.6z"/><linearGradient id="A" gradientUnits="userSpaceOnUse" x1="280.681" y1="264.469" x2="272.212" y2="224.948"><stop offset=".006" stop-color="#F6A18E"/><stop offset=".438" stop-color="#FCCFA1"/><stop offset="1" stop-color="#F5E9DF"/></linearGradient><path fill="url(#A)" d="M251.3 252.6c8.4-14.7 46.7-9.5 47.7-31.2 6.3 12.8-3.8 29.1-.7 43-7.7.7-53 4.1-47-11.8z"/><linearGradient id="B" gradientUnits="userSpaceOnUse" x1="271.132" y1="291.053" x2="269.947" y2="234.597"><stop offset=".006" stop-color="#F6A18E"/><stop offset=".438" stop-color="#FCCFA1"/><stop offset="1" stop-color="#F5E9DF"/></linearGradient><path fill="url(#B)" d="M239 282.1c-7-.8-21.4-41-19.8-41.2 5.2-.7 13.7 2.3 18 4.9 11.7 7.2 24.8 9.7 38.4 11.1 5.9.6 47 9.1 46.2 16.2-1.5 13.2-69.5 10.6-82.8 9-2-.2 23.8 2.8 0 0z"/><linearGradient id="C" gradientUnits="userSpaceOnUse" x1="287.291" y1="313.586" x2="293.737" y2="269.543"><stop offset=".006" stop-color="#F6A18E"/><stop offset=".438" stop-color="#FCCFA1"/><stop offset="1" stop-color="#F5E9DF"/></linearGradient><path fill="url(#C)" d="M239.7 288.7c20.7 3.4 55.1 2.7 75.2-2.8 13.3-3.6 27.1-3.9 40.2-9 10-4 15.4-16.2 1.2-11.4-26.2 9-48.8 12.6-76.4 13.6-12 .4-24.2 1.5-36.2.8-5.8-.3-15.7-2.9-21.2-.1-7 3.5 17 8.9 17.2 8.9z"/><linearGradient id="D" gradientUnits="userSpaceOnUse" x1="278.065" y1="348.767" x2="268.664" y2="304.901"><stop offset=".006" stop-color="#F6A18E"/><stop offset=".438" stop-color="#FCCFA1"/><stop offset="1" stop-color="#F5E9DF"/></linearGradient><path fill="url(#D)" d="M346.2 338.3c9.8-3 36.5-33.3 13.4-31.3-20.5 1.8-38.5 10.8-58.6 12.8-29.8 3-59.9 3.7-89.8 5.5-10.1.6-35-4.6-35.1 7.6-.1 10.9 38.7 9.4 47.1 10.2 21.8 1.9 39.6-7 60.7-5.8 8.2.5 17.2 3.6 25.1 3.5 10.8-.1 22-6 32.8-2.9"/><path fill="#25534D" d="M324.8 119.6c-6.8 8.1-10.2 19.6-5.9 29.8 1.3-9.7 1.4-19.9 5.9-29.8zM322.3 149.8c4.7-.8 21.3-2.5 23.9-6.7-2.8 2.5-21.6 13.8-23.9 6.7zM344.1 116.7s-19.7 11.3-22.6 29.8c-.1 0 12.1-21.9 22.6-29.8z"/></g></svg>