<svg xmlns="http://www.w3.org/2000/svg" viewBox="1.5 282.1 797.9 243.9" enable-background="new 1.5 282.1 797.9 243.9"><linearGradient gradientUnits="userSpaceOnUse" x1="-148.696" y1="764.778" x2="266.054" y2="764.778" gradientTransform="matrix(1.929 0 0 -1.929 286.835 1838.653)"><stop offset=".023" stop-color="#00A5E3" stop-opacity=".8"/><stop offset=".366" stop-color="#1D90B2" stop-opacity=".8"/><stop offset=".416" stop-color="#357FA2" stop-opacity=".808"/><stop offset=".531" stop-color="#465E82" stop-opacity=".826"/><stop offset=".643" stop-color="#4A456B" stop-opacity=".844"/><stop offset=".748" stop-color="#4A315A" stop-opacity=".86"/><stop offset=".846" stop-color="#49204F" stop-opacity=".876"/><stop offset=".932" stop-color="#481448" stop-opacity=".889"/><stop offset="1" stop-color="#470E46" stop-opacity=".9"/></linearGradient><linearGradient gradientUnits="userSpaceOnUse" x1="127.557" y1="764.779" x2="266.054" y2="764.779" gradientTransform="matrix(1.929 0 0 -1.929 286.835 1838.653)"><stop offset="0" stop-color="#00ADE7" stop-opacity=".8"/><stop offset=".648" stop-color="#284673" stop-opacity=".5"/><stop offset=".675" stop-color="#334675" stop-opacity=".508"/><stop offset=".759" stop-color="#4B4279" stop-opacity=".534"/><stop offset=".838" stop-color="#5B3C7B" stop-opacity=".559"/><stop offset=".909" stop-color="#64377C" stop-opacity=".582"/><stop offset=".968" stop-color="#67347C" stop-opacity=".6"/></linearGradient><linearGradient id="a" gradientUnits="userSpaceOnUse" x1="-99.415" y1="30.351" x2="314.287" y2="30.351" gradientTransform="matrix(1.929 0 0 1.929 193.3 307.567)"><stop offset="0" stop-color="#D04E9C"/><stop offset=".503" stop-color="#ED1965"/><stop offset=".701" stop-color="#94192C"/></linearGradient><path fill="url(#a)" d="M799.5 448.1v-164l-266.5 164-132.6-164-132.7 164v-164l-133.1 164-133.1-164v164"/><linearGradient id="b" gradientUnits="userSpaceOnUse" x1="207.434" y1="30.351" x2="345.581" y2="30.351" gradientTransform="matrix(1.929 0 0 1.929 193.3 307.567)"><stop offset="0" stop-color="#D04E9C"/><stop offset=".503" stop-color="#ED1965"/><stop offset=".818" stop-color="#94192C"/></linearGradient><path opacity=".8" fill="url(#b)" enable-background="new" d="M533 284.1l266.5 164v-164z"/><path d="M13.4 488.8h-11.4c-.2 0-.3-.1-.2-.3l.5-2.6c.1-.2.1-.3.4-.3h25.2c.2 0 .3.1.4.3l.3 2.6c.1.2-.1.3-.3.3h-11.4v30.8c0 .3-.1.4-.3.4h-2.9c-.2 0-.3-.1-.3-.4v-30.8zm42.3 31.2c-.2 0-.3-.1-.3-.3v-16.1h-18.3v16.1c0 .2-.1.3-.3.3h-2.9c-.3 0-.3-.1-.3-.3v-33.8c0-.2.1-.3.3-.3h2.9c.3 0 .3.1.3.3v14.5h18.4v-14.5c0-.2.1-.3.3-.3h3c.2 0 .3.1.3.3v33.8c0 .3-.1.3-.3.3h-3.1zm33.1-.3c-.1.3-.2.3-.4.3h-19.3c-.3 0-.4-.1-.4-.4v-33.7c0-.3.1-.4.4-.4h18.5c.3 0 .3.1.4.3l.4 2.6c0 .2-.1.3-.3.3h-15.9v12h14.2c.2 0 .3.1.3.3v2.6c0 .3-.1.3-.3.3h-14.2v12.8h16.8c.3 0 .3.1.3.3l-.5 2.7zm42.3-.7c0 .3-.1.4-.3.5-1.7.7-4 1-6.9 1-8.3 0-17.5-4.8-17.5-17.8 0-10.3 7.2-17.6 18.1-17.6 3.5 0 5.5.4 6.6.9.2.1.2.2.2.4v2.8c0 .3-.2.3-.3.2-1.3-.7-3.7-1.2-6.6-1.2-8.5 0-14.4 5.6-14.4 14.3 0 11.7 8.8 14.7 14.2 14.7 2.6 0 4.6-.2 6.5-.9.2-.1.3-.1.3.2l.1 2.5zm7.2 1c-.2 0-.3-.1-.3-.3v-33.6c0-.3.1-.4.3-.4 2.4-.1 5.2-.2 8.5-.2 7.4 0 12.5 3.2 12.5 9.8 0 5.1-3.5 8-7.4 9.2 1.8 2.5 9.1 13.2 10.3 15.2.1.2.1.4-.1.4h-3.5c-.3 0-.4-.1-.5-.2-1.7-2.4-6.3-9.4-9-13.5-.4-.6-.6-.8-1.1-.8h-6.5v14.3c0 .2-.1.3-.3.3l-2.9-.2zm9.2-17.7c5.2 0 8.3-2.9 8.3-6.9 0-4.2-3.1-6.8-9.1-6.8-2.1 0-4.1.1-5.2.2v13.6l6-.1zm40.2 17.4c-.1.3-.2.3-.4.3h-19.3c-.3 0-.4-.1-.4-.4v-33.7c0-.3.1-.4.4-.4h18.5c.3 0 .3.1.4.3l.4 2.6c0 .2-.1.3-.3.3h-15.7v12h14.2c.2 0 .3.1.3.3v2.6c0 .3-.1.3-.3.3h-14.2v12.8h16.7c.3 0 .3.1.3.3l-.6 2.7zm12-11.3l-4 11.4c-.1.2-.2.3-.4.3h-2.8c-.3 0-.3-.1-.3-.4l11.6-32c.2-.4.3-.7.3-1.8 0-.2.1-.3.3-.3h4.1c.2 0 .3.1.3.2l12.3 33.8c.1.3 0 .4-.2.4h-3.2c-.2 0-.3-.1-.4-.3l-4.1-11.4-13.5.1zm12.5-3.3c-1.1-3.4-4.8-13.3-5.8-16.8h-.1c-.9 3.3-3.6 10.6-5.8 16.8h11.7zm17.8-16.3h-11.4c-.2 0-.3-.1-.2-.3l.5-2.6c.1-.2.1-.3.4-.3h25.2c.2 0 .3.1.4.3l.3 2.6c.1.2-.1.3-.3.3h-11.4v30.8c0 .3-.1.4-.3.4h-2.9c-.2 0-.3-.1-.3-.4v-30.8zm23.6 30.9c0 .2-.1.3-.3.3h-2.9c-.2 0-.3-.1-.3-.3v-33.7c0-.3.1-.4.3-.4h2.9c.2 0 .3.1.3.3v33.8zm31.8-33.8c.1-.2.2-.3.4-.3h3.1c.2 0 .3.1.2.4l-12.6 33.7c-.1.3-.2.3-.4.3h-3.3c-.2 0-.3-.1-.5-.3l-12.8-33.8c-.1-.2 0-.4.2-.4h3.2c.2 0 .3.1.4.3 6.4 16.8 10.3 27.5 11.3 30.7 1.1-3.5 3.7-11.5 10.8-30.6zm12.8 33.8c0 .2-.1.3-.3.3h-2.9c-.2 0-.3-.1-.3-.3v-33.7c0-.3.1-.4.3-.4h2.9c.2 0 .3.1.3.3v33.8zm16.7-30.9h-11.4c-.2 0-.3-.1-.2-.3l.5-2.6c.1-.2.1-.3.4-.3h25.2c.2 0 .3.1.4.3l.3 2.6c.1.2-.1.3-.3.3h-11.4v30.8c0 .3-.1.4-.3.4h-2.9c-.2 0-.3-.1-.3-.4v-30.8zm18.4-2.9c-.2-.3 0-.4.2-.4h3.4c.2 0 .3.1.4.2 6.8 12 9 15.9 9.9 17.6.8-1.8 3-5.7 9.8-17.6.1-.2.2-.2.3-.2h3.3c.2 0 .3.1.2.3l-11.8 20c-.3.5-.4.8-.4 1.3v12.6c0 .2-.1.3-.3.3h-2.8c-.4 0-.4-.1-.4-.3v-12.7c0-.5-.1-.7-.3-1.2l-11.5-19.9zm67.5 33.1c0 .3-.1.4-.3.5-1.7.7-4 1-6.9 1-8.3 0-17.5-4.8-17.5-17.8 0-10.3 7.2-17.6 18.1-17.6 3.5 0 5.5.4 6.6.9.2.1.2.2.2.4v2.8c0 .3-.2.3-.3.2-1.3-.7-3.7-1.2-6.6-1.2-8.5 0-14.4 5.6-14.4 14.3 0 11.7 8.8 14.7 14.2 14.7 2.6 0 4.6-.2 6.5-.9.2-.1.3-.1.3.2v2.5h.1zm35.4-16.4c.1 11.4-6.5 17.9-15.4 17.9-9.8 0-15.6-7.5-15.6-17.8 0-10.6 6.6-17.6 15.5-17.6 9.6 0 15.4 7.6 15.5 17.5zm-15.3 14.7c7.4 0 11.7-5.9 11.7-14.6-.1-8.4-4.8-14.4-11.9-14.4-6.5 0-11.8 5-11.8 14.4 0 7.8 4.1 14.6 12 14.6zm23 2.7c-.2 0-.4-.1-.4-.4v-33.7c0-.2.1-.3.3-.3h4.2c.3 0 .3.1.5.3 4.8 8 15.6 25.8 17.8 29.9h.1c-.1-1.3-.2-3.5-.2-7.8v-22c0-.2.2-.3.4-.3h2.7c.3 0 .3.2.3.4v33.7c0 .3-.1.4-.4.4h-3.8c-.3 0-.4-.1-.5-.3-2.2-4-16.5-27.4-18.1-30.8h-.1c.2 1.8.3 4.5.3 8.9v21.7c0 .3-.1.4-.3.4l-2.8-.1zm38.9-.3c0 .2-.1.3-.3.3h-3c-.2 0-.3-.1-.3-.3v-33.8c0-.2.1-.3.3-.3h18.6c.2 0 .3.1.4.3l.3 2.6c.1.3-.1.3-.3.3h-15.8v12.5h14.1c.2 0 .3.1.3.3v2.6c0 .2-.1.3-.3.3h-14v15.2zm42.3 0c-.1.3-.2.3-.4.3h-19.3c-.3 0-.4-.1-.4-.4v-33.7c0-.3.1-.4.4-.4h18.5c.3 0 .3.1.4.3l.4 2.6c0 .2-.1.3-.3.3h-15.7v12h14.2c.2 0 .3.1.3.3v2.6c0 .3-.1.3-.3.3h-14.2v12.8h16.8c.3 0 .3.1.3.3l-.7 2.7zm7.1.3c-.2 0-.3-.1-.3-.3v-33.6c0-.3.1-.4.3-.4 2.4-.1 5.2-.2 8.5-.2 7.4 0 12.5 3.2 12.5 9.8 0 5.1-3.5 8-7.4 9.2 1.8 2.5 9.1 13.2 10.3 15.2.1.2.1.4-.1.4h-3.5c-.3 0-.4-.1-.5-.2-1.7-2.4-6.3-9.4-9-13.5-.4-.6-.6-.8-1.1-.8h-6.5v14.3c0 .2-.1.3-.3.3l-2.9-.2zm9.2-17.7c5.2 0 8.3-2.9 8.3-6.9 0-4.2-3.1-6.8-9.1-6.8-2.1 0-4.1.1-5.2.2v13.6l6-.1zm40.3 17.4c-.1.3-.2.3-.4.3h-19.3c-.3 0-.4-.1-.4-.4v-33.7c0-.3.1-.4.4-.4h18.5c.3 0 .3.1.4.3l.4 2.6c0 .2-.1.3-.3.3h-15.7v12h14.2c.2 0 .3.1.3.3v2.6c0 .3-.1.3-.3.3h-14.2v12.8h16.8c.3 0 .3.1.3.3l-.7 2.7zm7.2.3c-.2 0-.4-.1-.4-.4v-33.7c0-.2.1-.3.3-.3h4.2c.3 0 .3.1.5.3 4.8 8 15.6 25.8 17.8 29.9h.1c-.1-1.3-.2-3.5-.2-7.8v-22c0-.2.2-.3.4-.3h2.7c.3 0 .3.2.3.4v33.7c0 .3-.1.4-.4.4h-3.8c-.3 0-.4-.1-.5-.3-2.2-4-16.5-27.4-18.1-30.8h-.1c.2 1.8.3 4.5.3 8.9v21.7c0 .3-.1.4-.3.4l-2.8-.1zm57.6-1c0 .3-.1.4-.3.5-1.7.7-4 1-6.9 1-8.3 0-17.5-4.8-17.5-17.8 0-10.3 7.2-17.6 18.1-17.6 3.5 0 5.5.4 6.6.9.2.1.2.2.2.4v2.8c0 .3-.2.3-.3.2-1.3-.7-3.7-1.2-6.6-1.2-8.5 0-14.4 5.6-14.4 14.3 0 11.7 8.8 14.7 14.2 14.7 2.6 0 4.6-.2 6.5-.9.2-.1.3-.1.3.2l.1 2.5zm27 .7c-.1.3-.2.3-.4.3h-19.3c-.3 0-.4-.1-.4-.4v-33.7c0-.3.1-.4.4-.4h18.5c.3 0 .3.1.4.3l.4 2.6c0 .2-.1.3-.3.3h-15.7v12h14.2c.2 0 .3.1.3.3v2.6c0 .3-.1.3-.3.3h-14.2v12.8h16.8c.3 0 .3.1.3.3l-.7 2.7z"/></svg>